solid STL generated by MeshLab
  facet normal  4.999999e-01  0.000000e+00  8.660254e-01
    outer loop
      vertex   2.212118e-01  5.000000e-02  3.895000e-02
      vertex  -7.687493e-02  5.000000e-02  2.110504e-01
      vertex   2.212118e-01 -2.775558e-17  3.895000e-02
    endloop
  endfacet
  facet normal  4.999999e-01  0.000000e+00  8.660254e-01
    outer loop
      vertex   2.212118e-01 -2.775558e-17  3.895000e-02
      vertex  -7.687493e-02  5.000000e-02  2.110504e-01
      vertex  -7.687493e-02 -2.775558e-17  2.110504e-01
    endloop
  endfacet
  facet normal  5.000000e-01  0.000000e+00 -8.660254e-01
    outer loop
      vertex   2.212118e-01 -2.775558e-17 -3.895000e-02
      vertex  -7.687419e-02 -2.775558e-17 -2.110500e-01
      vertex   2.212118e-01  5.000000e-02 -3.895000e-02
    endloop
  endfacet
  facet normal  5.000000e-01  0.000000e+00 -8.660254e-01
    outer loop
      vertex   2.212118e-01  5.000000e-02 -3.895000e-02
      vertex  -7.687419e-02 -2.775558e-17 -2.110500e-01
      vertex  -7.687419e-02  5.000000e-02 -2.110500e-01
    endloop
  endfacet
  facet normal -1.000000e+00 -0.000000e+00 -0.000000e+00
    outer loop
      vertex  -1.443376e-01  5.000000e-02  1.721009e-01
      vertex  -1.443376e-01  5.000000e-02 -1.721000e-01
      vertex  -1.443376e-01  0.000000e+00  1.721009e-01
    endloop
  endfacet
  facet normal -1.000000e+00  0.000000e+00  0.000000e+00
    outer loop
      vertex  -1.443376e-01  0.000000e+00  1.721009e-01
      vertex  -1.443376e-01  5.000000e-02 -1.721000e-01
      vertex  -1.443376e-01  0.000000e+00 -1.721000e-01
    endloop
  endfacet
  facet normal  0.000000e+00  1.000000e+00 -0.000000e+00
    outer loop
      vertex  -7.687419e-02  5.000000e-02 -2.110500e-01
      vertex  -1.443376e-01  5.000000e-02 -1.721000e-01
      vertex   2.212118e-01  5.000000e-02 -3.895000e-02
    endloop
  endfacet
  facet normal  0.000000e+00  1.000000e+00  0.000000e+00
    outer loop
      vertex   2.212118e-01  5.000000e-02 -3.895000e-02
      vertex  -1.443376e-01  5.000000e-02 -1.721000e-01
      vertex  -1.443376e-01  5.000000e-02  1.721009e-01
    endloop
  endfacet
  facet normal  0.000000e+00  1.000000e+00 -0.000000e+00
    outer loop
      vertex   2.212118e-01  5.000000e-02 -3.895000e-02
      vertex  -1.443376e-01  5.000000e-02  1.721009e-01
      vertex   2.212118e-01  5.000000e-02  3.895000e-02
    endloop
  endfacet
  facet normal  0.000000e+00  1.000000e+00  0.000000e+00
    outer loop
      vertex   2.212118e-01  5.000000e-02  3.895000e-02
      vertex  -1.443376e-01  5.000000e-02  1.721009e-01
      vertex  -7.687493e-02  5.000000e-02  2.110504e-01
    endloop
  endfacet
  facet normal -4.114170e-16 -1.000000e+00  0.000000e+00
    outer loop
      vertex  -1.443376e-01  0.000000e+00 -1.721000e-01
      vertex  -7.687419e-02 -2.775558e-17 -2.110500e-01
      vertex  -1.443376e-01  0.000000e+00  1.721009e-01
    endloop
  endfacet
  facet normal -3.796413e-17 -1.000000e+00  6.575579e-17
    outer loop
      vertex  -1.443376e-01  0.000000e+00  1.721009e-01
      vertex  -7.687419e-02 -2.775558e-17 -2.110500e-01
      vertex   2.212118e-01 -2.775558e-17 -3.895000e-02
    endloop
  endfacet
  facet normal -2.436753e-16 -1.000000e+00 -2.905450e-16
    outer loop
      vertex  -1.443376e-01  0.000000e+00  1.721009e-01
      vertex   2.212118e-01 -2.775558e-17 -3.895000e-02
      vertex  -7.687493e-02 -2.775558e-17  2.110504e-01
    endloop
  endfacet
  facet normal  0.000000e+00 -1.000000e+00  0.000000e+00
    outer loop
      vertex  -7.687493e-02 -2.775558e-17  2.110504e-01
      vertex   2.212118e-01 -2.775558e-17 -3.895000e-02
      vertex   2.212118e-01 -2.775558e-17  3.895000e-02
    endloop
  endfacet
  facet normal -5.000002e-01 -0.000000e+00 -8.660254e-01
    outer loop
      vertex  -7.687419e-02  5.000000e-02 -2.110500e-01
      vertex  -7.687419e-02 -2.775558e-17 -2.110500e-01
      vertex  -1.443376e-01  5.000000e-02 -1.721000e-01
    endloop
  endfacet
  facet normal -5.000002e-01 -0.000000e+00 -8.660254e-01
    outer loop
      vertex  -1.443376e-01  5.000000e-02 -1.721000e-01
      vertex  -7.687419e-02 -2.775558e-17 -2.110500e-01
      vertex  -1.443376e-01  0.000000e+00 -1.721000e-01
    endloop
  endfacet
  facet normal -4.999999e-01  0.000000e+00  8.660254e-01
    outer loop
      vertex  -1.443376e-01  5.000000e-02  1.721009e-01
      vertex  -1.443376e-01  0.000000e+00  1.721009e-01
      vertex  -7.687493e-02  5.000000e-02  2.110504e-01
    endloop
  endfacet
  facet normal -4.999999e-01  0.000000e+00  8.660254e-01
    outer loop
      vertex  -7.687493e-02  5.000000e-02  2.110504e-01
      vertex  -1.443376e-01  0.000000e+00  1.721009e-01
      vertex  -7.687493e-02 -2.775558e-17  2.110504e-01
    endloop
  endfacet
  facet normal  1.000000e+00  0.000000e+00  0.000000e+00
    outer loop
      vertex   2.212118e-01  5.000000e-02  3.895000e-02
      vertex   2.212118e-01 -2.775558e-17  3.895000e-02
      vertex   2.212118e-01  5.000000e-02 -3.895000e-02
    endloop
  endfacet
  facet normal  1.000000e+00  0.000000e+00  0.000000e+00
    outer loop
      vertex   2.212118e-01  5.000000e-02 -3.895000e-02
      vertex   2.212118e-01 -2.775558e-17  3.895000e-02
      vertex   2.212118e-01 -2.775558e-17 -3.895000e-02
    endloop
  endfacet
endsolid vcg
